# xmcd
# Track frame offsets:
# 150
# 15358
# 33499
# 49762
# 64100
# 80370
# 96945
# 115021
# 133578
# 149729
# 166252
# 178885
#
# Disc length: 2601 seconds
# Revision: 0
# Processed by: cddbd v1.4PL0 Copyright (c) Steve Scherf et al.
# Submitted via: VisiTrax 2.9.5.180 - For more info visit www.synapsa.com
#
DISCID=a00a270c
DTITLE=Baillie And The Boys - The Road That Led Me To You
DYEAR=1999
DGENRE=
TTITLE0=The Road That Led Me To You
TTITLE1=Feet Of Clay
TTITLE2=Treat Me Like A Stranger
TTITLE3=The Moment
TTITLE4=AFar Cry From Him
TTITLE5=My Love Is Not Blind
TTITLE6=I Can´t Turn The Tide
TTITLE7=Nobody Here To Love
TTITLE8=The Lights Of Home
TTITLE9=Protect Me
TTITLE10=Quicksilver
TTITLE11=Even Then (Jay´s Song )
EXTD=
EXTT0=
EXTT1=
EXTT2=
EXTT3=
EXTT4=
EXTT5=
EXTT6=
EXTT7=
EXTT8=
EXTT9=
EXTT10=
EXTT11=
PLAYORDER=
